<svg width="50" height="50" viewBox="0 0 50 50" fill="none" xmlns="http://www.w3.org/2000/svg">
<circle cx="25" cy="25" r="23" stroke="#C4C5C5" stroke-width="4"/>
<mask id="path-2-inside-1_31_679" fill="white">
<path d="M32.7958 1.24658C36.9716 2.61707 40.7124 5.06417 43.6409 8.34121C46.5695 11.6183 48.5825 15.6094 49.4769 19.9124C50.3712 24.2154 50.1155 28.6781 48.7353 32.8508C47.3552 37.0234 44.8994 40.7584 41.6156 43.6794C38.3318 46.6004 34.336 48.6041 30.0309 49.4886C25.7259 50.373 21.2638 50.1069 17.0944 48.7171C12.9249 47.3273 9.19556 44.8629 6.28217 41.5724C3.36878 38.2818 1.37433 34.2814 0.499866 29.9743L4.46833 29.1686C5.20115 32.778 6.87255 36.1304 9.31404 38.888C11.7555 41.6456 14.8808 43.7108 18.3749 44.8755C21.869 46.0401 25.6083 46.2631 29.216 45.522C32.8238 44.7808 36.1724 43.1017 38.9243 40.6538C41.6762 38.2059 43.7341 35.0759 44.8907 31.5791C46.0473 28.0824 46.2617 24.3425 45.5122 20.7365C44.7626 17.1305 43.0758 13.7858 40.6215 11.0396C38.1673 8.29332 35.0325 6.24259 31.5331 5.09409L32.7958 1.24658Z"/>
</mask>
<path d="M32.7958 1.24658C36.9716 2.61707 40.7124 5.06417 43.6409 8.34121C46.5695 11.6183 48.5825 15.6094 49.4769 19.9124C50.3712 24.2154 50.1155 28.6781 48.7353 32.8508C47.3552 37.0234 44.8994 40.7584 41.6156 43.6794C38.3318 46.6004 34.336 48.6041 30.0309 49.4886C25.7259 50.373 21.2638 50.1069 17.0944 48.7171C12.9249 47.3273 9.19556 44.8629 6.28217 41.5724C3.36878 38.2818 1.37433 34.2814 0.499866 29.9743L4.46833 29.1686C5.20115 32.778 6.87255 36.1304 9.31404 38.888C11.7555 41.6456 14.8808 43.7108 18.3749 44.8755C21.869 46.0401 25.6083 46.2631 29.216 45.522C32.8238 44.7808 36.1724 43.1017 38.9243 40.6538C41.6762 38.2059 43.7341 35.0759 44.8907 31.5791C46.0473 28.0824 46.2617 24.3425 45.5122 20.7365C44.7626 17.1305 43.0758 13.7858 40.6215 11.0396C38.1673 8.29332 35.0325 6.24259 31.5331 5.09409L32.7958 1.24658Z" stroke="#5453E0" stroke-width="8" mask="url(#path-2-inside-1_31_679)"/>
</svg>

<svg xmlns="http://www.w3.org/2000/svg" width="50" height="50" fill="none"><circle cx="25" cy="25" r="23" stroke="#C4C5C5" stroke-width="4"/><mask id="a" fill="#fff"><path d="M32.796 1.247A25 25 0 1 1 .5 29.974l3.968-.805A20.95 20.95 0 1 0 31.533 5.094l1.263-3.847Z"/></mask><path stroke="#5453E0" stroke-width="8" d="M32.796 1.247A25 25 0 1 1 .5 29.974l3.968-.805A20.95 20.95 0 1 0 31.533 5.094l1.263-3.847Z" mask="url(#a)"/></svg>